<?xml version="1.0" standalone="no"?>
<!DOCTYPE svg PUBLIC "-//W3C//DTD SVG 20010904//EN"
 "http://www.w3.org/TR/2001/REC-SVG-20010904/DTD/svg10.dtd">
<svg version="1.0" xmlns="http://www.w3.org/2000/svg"
 width="700.000000pt" height="700.000000pt" viewBox="0 0 700.000000 700.000000"
 preserveAspectRatio="xMidYMid meet">
<metadata>
Created by potrace 1.14, written by Peter Selinger 2001-2017
</metadata>
<g transform="translate(0.000000,700.000000) scale(0.100000,-0.100000)"
fill="#000000" stroke="none">
<path d="M3290 6990 c-197 -26 -330 -59 -515 -127 -268 -98 -497 -237 -666
-403 -105 -103 -171 -189 -226 -295 -41 -79 -86 -201 -97 -260 -3 -17 -8 -40
-10 -51 -33 -162 -50 -358 -51 -564 0 -195 8 -291 35 -419 l20 -94 -24 -61
c-27 -69 -39 -135 -39 -216 1 -187 72 -389 174 -490 41 -41 65 -56 120 -73 11
-3 21 -32 33 -89 62 -291 216 -627 384 -838 46 -58 231 -240 243 -240 16 0
-48 -112 -99 -176 -137 -169 -299 -235 -837 -339 -274 -54 -254 -50 -320 -65
-27 -6 -58 -13 -68 -15 -10 -2 -27 -7 -37 -10 -10 -3 -28 -8 -39 -10 -42 -8
-197 -57 -276 -87 -340 -129 -564 -336 -651 -603 -17 -50 -104 -400 -109 -435
-3 -25 -8 -56 -10 -70 -10 -54 -14 -88 -20 -160 -4 -41 -8 -93 -10 -115 -4
-43 -13 -166 -20 -282 -3 -40 -1 -73 3 -73 4 0 43 -7 87 -15 119 -21 132 -23
235 -40 52 -9 109 -19 125 -21 17 -3 43 -7 58 -9 16 -2 40 -6 55 -9 15 -3 45
-8 67 -11 22 -3 69 -10 105 -15 36 -6 117 -17 180 -25 63 -9 126 -18 140 -20
35 -6 403 -52 475 -60 82 -8 143 -15 185 -20 19 -3 67 -7 105 -10 39 -3 88 -8
110 -10 22 -2 76 -7 120 -10 44 -3 98 -8 120 -10 22 -2 85 -7 140 -10 55 -4
120 -8 145 -10 311 -28 1239 -27 1665 0 39 2 113 7 165 10 52 3 115 8 140 10
25 2 81 7 125 10 44 3 91 8 105 10 14 2 61 7 105 10 44 3 98 8 120 10 22 3 87
9 145 15 140 14 181 19 390 45 70 9 266 36 290 40 14 2 48 7 75 10 28 4 59 8
70 9 11 2 45 6 75 10 104 13 437 66 613 97 l119 21 -6 102 c-4 55 -9 124 -11
151 -2 28 -7 82 -10 120 -7 86 -23 229 -30 270 -31 182 -92 421 -136 537 -69
179 -213 339 -404 449 -210 122 -422 188 -937 290 -517 102 -607 131 -755 235
-65 46 -151 147 -192 226 l-25 46 110 108 c156 154 229 253 329 449 72 141
134 310 180 490 32 127 33 130 64 139 40 12 111 74 151 133 77 113 119 277
115 440 -3 122 -22 195 -66 261 -16 24 -27 47 -24 52 26 43 27 605 0 760 -2
14 -6 41 -9 60 -5 32 -32 160 -40 185 -1 6 -8 30 -15 55 -48 171 -163 344
-262 396 -41 21 -116 40 -148 38 -18 -1 -29 9 -50 44 -14 24 -32 50 -38 57 -7
8 -13 16 -13 20 0 8 -54 77 -105 134 -210 236 -410 345 -730 397 -16 3 -41 8
-55 10 -42 9 -371 11 -430 4z"/>
</g>
</svg>
